<?xml version="1.0" encoding="utf-8"?>
<!-- Generator: Adobe Illustrator 16.0.0, SVG Export Plug-In . SVG Version: 6.00 Build 0)  -->
<!DOCTYPE svg PUBLIC "-//W3C//DTD SVG 1.1//EN" "http://www.w3.org/Graphics/SVG/1.1/DTD/svg11.dtd">
<svg version="1.1" id="Layer_1" xmlns="http://www.w3.org/2000/svg" xmlns:xlink="http://www.w3.org/1999/xlink" x="0px" y="0px"
	 width="95.802px" height="45.393px" viewBox="-1.105 0 95.802 45.393" enable-background="new -1.105 0 95.802 45.393"
	 xml:space="preserve">
<g>
	<g>
		<g>
			<path fill="#4D4D4D" d="M49.64,11.115h7.68L45.395,34.178L33.504,11.115h7.673l4.218,9.703L49.64,11.115z"/>
			<path fill="#4D4D4D" d="M78.151,22.747c0,6.341-5.156,11.53-11.532,11.53c-6.37,0-11.531-5.189-11.531-11.53
				c0-6.376,5.161-11.534,11.531-11.534C72.995,11.213,78.151,16.371,78.151,22.747z M71.586,22.747c0-2.98-2.338-5.287-4.967-5.287
				c-2.627,0-4.964,2.307-4.964,5.287c0,3.138,2.337,5.251,4.964,5.251C69.248,27.998,71.586,25.885,71.586,22.747z"/>
			<path fill="#4D4D4D" d="M94.697,16.637h-5V34.24h-6.66V16.637h-4.968v-5.521h4.968h6.66h5V16.637z"/>
		</g>
		<path fill="#4D4D4D" d="M21.076,15.99l6.609-6.616c0.454-0.352,0.842-0.769,1.154-1.249c1.453-2.007,1.282-4.818-0.523-6.626
			C27.315,0.5,26.004,0,24.689,0c-0.492,0-0.986,0.068-1.462,0.209H4.157c-2.834,0-5.13,2.294-5.13,5.125
			c0,2.83,2.296,5.126,5.13,5.126h7.947l-5.451,5.452c-0.181,0.183-0.341,0.371-0.484,0.569c-0.774,0.962-1.114,2.25-0.999,3.521
			c0,0.012,0,0.022,0,0.035c0.069,0.654,0.25,1.304,0.561,1.897c0.23,0.444,0.528,0.836,0.874,1.175
			c0.014,0.017,0.03,0.034,0.049,0.051c0.997,1,2.311,1.501,3.623,1.501c1.091,0,2.183-0.352,3.1-1.046
			c0.378,0.014,0.699,0.105,1.214,0.105c3.418,0,5.941,2.776,5.941,6.192c0,3.414-2.78,6.192-6.193,6.192
			c-3.2,0-5.91-2.491-6.17-5.672c-0.196-2.387-2.23-4.26-4.627-4.26c-0.128,0-0.26,0.003-0.386,0.014
			C1.922,26.293,0.801,26.869,0,27.816c-0.804,0.945-1.189,2.15-1.09,3.388c0.657,7.957,7.435,14.188,15.428,14.188
			c8.534,0,15.478-6.941,15.478-15.477C29.815,23.797,26.243,18.499,21.076,15.99z M13.182,22.444
			c-0.777,0.778-1.808,1.204-2.905,1.204c-1.097,0-2.13-0.426-2.907-1.204c-1.603-1.603-1.603-4.209,0-5.812L21.784,2.217
			c0.774-0.775,1.811-1.202,2.905-1.202c1.1,0,2.131,0.426,2.905,1.202c1.601,1.604,1.601,4.21,0,5.812L13.182,22.444z M4.157,9.445
			c-2.268,0-4.107-1.844-4.107-4.109c0-2.265,1.84-4.108,4.107-4.108h17.209c-0.102,0.088-0.204,0.177-0.304,0.272l-7.944,7.945
			H4.157z M14.338,44.377c-7.468,0-13.795-5.824-14.409-13.261c-0.081-0.966,0.218-1.901,0.845-2.644
			c0.63-0.738,1.502-1.188,2.466-1.271c0.099-0.004,0.202-0.013,0.302-0.013c1.87,0,3.457,1.463,3.611,3.329
			c0.309,3.704,3.461,6.607,7.186,6.607c3.976,0,7.211-3.235,7.211-7.212c0-4.045-3.054-7.21-6.959-7.21
			c-0.078,0-0.15-0.006-0.222-0.011l5.943-5.942c5.003,2.276,8.486,7.319,8.486,13.164C28.798,37.891,22.311,44.377,14.338,44.377z"
			/>
		<g display="none">
			<path display="inline" fill="#4D4D4D" d="M40.16,40.514l0.329-0.026c0.012,0.127,0.051,0.233,0.104,0.321
				c0.06,0.082,0.145,0.149,0.265,0.2s0.252,0.079,0.399,0.079c0.132,0,0.254-0.022,0.35-0.06c0.103-0.038,0.179-0.093,0.228-0.161
				c0.048-0.07,0.07-0.144,0.07-0.227c0-0.079-0.022-0.154-0.069-0.212c-0.046-0.063-0.123-0.114-0.234-0.158
				c-0.069-0.024-0.223-0.066-0.463-0.125c-0.243-0.059-0.409-0.11-0.506-0.164c-0.123-0.063-0.218-0.146-0.281-0.241
				c-0.059-0.098-0.089-0.204-0.089-0.326c0-0.129,0.037-0.25,0.111-0.369c0.077-0.113,0.185-0.201,0.326-0.262
				c0.144-0.058,0.307-0.085,0.479-0.085c0.195,0,0.364,0.029,0.516,0.095c0.15,0.06,0.26,0.149,0.341,0.271
				c0.081,0.121,0.122,0.261,0.128,0.411l-0.33,0.024c-0.021-0.163-0.081-0.288-0.184-0.375c-0.101-0.082-0.257-0.121-0.455-0.121
				c-0.21,0-0.364,0.039-0.46,0.111c-0.093,0.075-0.144,0.17-0.144,0.274c0,0.097,0.035,0.172,0.102,0.232
				c0.069,0.063,0.243,0.125,0.523,0.188c0.279,0.063,0.477,0.121,0.578,0.166c0.152,0.066,0.264,0.158,0.337,0.271
				c0.075,0.104,0.109,0.227,0.109,0.366c0,0.141-0.042,0.271-0.121,0.395c-0.079,0.123-0.192,0.219-0.343,0.288
				c-0.146,0.065-0.315,0.102-0.502,0.102c-0.234,0-0.436-0.035-0.597-0.102c-0.156-0.071-0.283-0.174-0.372-0.314
				C40.213,40.846,40.166,40.688,40.16,40.514z"/>
			<path display="inline" fill="#4D4D4D" d="M43.816,41.354v-2.61h1.883v0.307h-1.541v0.801h1.446v0.306h-1.446v0.889h1.604v0.311
				h-1.946V41.354z"/>
			<path display="inline" fill="#4D4D4D" d="M47.999,41.354v-2.305h-0.856v-0.307h2.066v0.307h-0.865v2.305H47.999z"/>
			<path display="inline" fill="#4D4D4D" d="M51.324,41.354v-2.305h-0.861v-0.307h2.071v0.307h-0.866v2.305H51.324z"/>
			<path display="inline" fill="#4D4D4D" d="M54.04,41.354v-2.61h0.345v2.61H54.04z"/>
			<path display="inline" fill="#4D4D4D" d="M56.085,41.354v-2.61h0.355l1.373,2.049v-2.049h0.33v2.61h-0.355l-1.369-2.055v2.055
				H56.085z"/>
			<path display="inline" fill="#4D4D4D" d="M61.041,40.329v-0.309h1.103v0.97c-0.166,0.133-0.343,0.234-0.524,0.305
				c-0.179,0.065-0.362,0.102-0.554,0.102c-0.256,0-0.49-0.055-0.697-0.164c-0.21-0.108-0.367-0.271-0.475-0.475
				c-0.107-0.209-0.16-0.442-0.16-0.7c0-0.251,0.05-0.489,0.16-0.71c0.103-0.223,0.256-0.385,0.457-0.494
				c0.197-0.104,0.432-0.154,0.69-0.154c0.185,0,0.356,0.027,0.509,0.089c0.154,0.063,0.272,0.145,0.361,0.258
				c0.085,0.109,0.152,0.249,0.199,0.427l-0.315,0.085c-0.037-0.133-0.089-0.239-0.146-0.313c-0.06-0.077-0.144-0.136-0.25-0.183
				c-0.106-0.045-0.229-0.067-0.358-0.067c-0.156,0-0.297,0.022-0.412,0.072c-0.114,0.048-0.205,0.108-0.278,0.189
				c-0.066,0.076-0.123,0.163-0.164,0.257c-0.066,0.16-0.101,0.338-0.101,0.525c0,0.23,0.042,0.428,0.12,0.582
				c0.084,0.16,0.2,0.273,0.354,0.354c0.149,0.075,0.315,0.113,0.483,0.113c0.153,0,0.297-0.029,0.442-0.087
				c0.143-0.058,0.248-0.12,0.322-0.184V40.33L61.041,40.329L61.041,40.329z"/>
			<path display="inline" fill="#4D4D4D" d="M66.528,41.354v-1.106l-1.01-1.504h0.422l0.519,0.784
				c0.097,0.146,0.183,0.295,0.265,0.442c0.077-0.136,0.176-0.292,0.284-0.46l0.507-0.768h0.405l-1.045,1.504v1.106L66.528,41.354
				L66.528,41.354z"/>
			<path display="inline" fill="#4D4D4D" d="M69.218,40.082c0-0.434,0.114-0.773,0.35-1.02c0.229-0.248,0.531-0.369,0.9-0.369
				c0.237,0,0.458,0.057,0.65,0.171c0.197,0.117,0.342,0.279,0.441,0.482c0.104,0.206,0.152,0.439,0.152,0.704
				c0,0.264-0.05,0.499-0.16,0.708c-0.104,0.213-0.258,0.367-0.455,0.476c-0.193,0.106-0.406,0.161-0.635,0.161
				c-0.243,0-0.466-0.059-0.656-0.177c-0.193-0.118-0.341-0.283-0.441-0.487C69.265,40.528,69.218,40.307,69.218,40.082z
				 M69.573,40.086c0,0.313,0.085,0.562,0.253,0.744c0.171,0.18,0.382,0.271,0.637,0.271c0.261,0,0.476-0.093,0.646-0.272
				c0.168-0.185,0.252-0.441,0.252-0.781c0-0.211-0.035-0.397-0.11-0.556c-0.071-0.16-0.175-0.279-0.315-0.367
				c-0.137-0.091-0.293-0.132-0.465-0.132c-0.244,0-0.457,0.083-0.633,0.252C69.662,39.41,69.573,39.691,69.573,40.086z"/>
			<path display="inline" fill="#4D4D4D" d="M74.967,38.742h0.347v1.506c0,0.264-0.027,0.473-0.088,0.627
				c-0.061,0.153-0.166,0.28-0.32,0.379c-0.156,0.095-0.359,0.143-0.615,0.143c-0.241,0-0.441-0.041-0.6-0.127
				c-0.155-0.082-0.265-0.205-0.33-0.368c-0.067-0.156-0.1-0.376-0.1-0.652v-1.506h0.346v1.504c0,0.227,0.021,0.396,0.063,0.503
				c0.041,0.105,0.114,0.189,0.216,0.25c0.104,0.057,0.229,0.087,0.381,0.087c0.25,0,0.43-0.057,0.541-0.175
				c0.106-0.116,0.159-0.337,0.159-0.665V38.742L74.967,38.742z"/>
			<path display="inline" fill="#4D4D4D" d="M79.106,41.354v-2.61h1.764v0.307h-1.413v0.808h1.224v0.309h-1.224v1.188L79.106,41.354
				L79.106,41.354z"/>
			<path display="inline" fill="#4D4D4D" d="M82.422,41.354v-2.61h1.156c0.233,0,0.409,0.021,0.53,0.068
				c0.121,0.05,0.22,0.132,0.287,0.249c0.076,0.117,0.11,0.248,0.11,0.393c0,0.188-0.058,0.344-0.179,0.47
				c-0.116,0.125-0.307,0.209-0.555,0.242c0.092,0.041,0.158,0.086,0.205,0.131c0.104,0.094,0.197,0.208,0.291,0.347l0.453,0.712
				h-0.437l-0.347-0.544c-0.102-0.158-0.185-0.278-0.248-0.359c-0.065-0.084-0.127-0.146-0.174-0.179
				c-0.055-0.03-0.104-0.057-0.158-0.066c-0.041-0.007-0.107-0.012-0.194-0.012h-0.397v1.16L82.422,41.354L82.422,41.354z
				 M82.769,39.893h0.741c0.156,0,0.279-0.016,0.37-0.051c0.092-0.029,0.153-0.084,0.202-0.151c0.048-0.076,0.073-0.151,0.073-0.237
				c0-0.124-0.049-0.225-0.139-0.308c-0.091-0.079-0.229-0.115-0.425-0.115h-0.825v0.862H82.769z"/>
			<path display="inline" fill="#4D4D4D" d="M86.151,41.354v-2.61h1.889v0.307H86.5v0.801h1.44v0.306H86.5v0.889h1.603v0.311h-1.951
				V41.354z"/>
			<path display="inline" fill="#4D4D4D" d="M89.679,41.354v-2.61h1.891v0.307h-1.543v0.801h1.443v0.306h-1.443v0.889h1.601v0.311
				h-1.948V41.354z"/>
		</g>
	</g>
</g>
</svg>
